<svg preserveAspectRatio="none" overflow="visible" style="display: block;" width="28" height="28" viewBox="0 0 28 28" fill="none" xmlns="http://www.w3.org/2000/svg">
<g id="Icon">
<path id="Vector" d="M3.5 12.8333H7.875C8.23724 12.8333 8.5945 12.9177 8.9185 13.0797C9.24249 13.2417 9.52432 13.4769 9.74167 13.7667L10.2667 14.4667C10.7014 15.0462 11.265 15.5167 11.913 15.8407C12.561 16.1647 13.2755 16.3333 14 16.3333C14.7245 16.3333 15.439 16.1647 16.087 15.8407C16.735 15.5167 17.2986 15.0462 17.7333 14.4667L18.2583 13.7667C18.4757 13.4769 18.7575 13.2417 19.0815 13.0797C19.4055 12.9177 19.7628 12.8333 20.125 12.8333H24.5" stroke="#1761C1" stroke-width="2.33333" stroke-linecap="round" stroke-linejoin="round"/>
<path id="Vector_2" d="M3.5 8.16667H24.5" stroke="#1761C1" stroke-width="2.33333" stroke-linecap="round" stroke-linejoin="round"/>
<path id="Vector_3" d="M22.1667 3.5H5.83333C4.54467 3.5 3.5 4.54467 3.5 5.83333V22.1667C3.5 23.4553 4.54467 24.5 5.83333 24.5H22.1667C23.4553 24.5 24.5 23.4553 24.5 22.1667V5.83333C24.5 4.54467 23.4553 3.5 22.1667 3.5Z" stroke="#1761C1" stroke-width="2.33333" stroke-linecap="round" stroke-linejoin="round"/>
</g>
</svg>
